<svg id="Capa_1" enable-background="new 0 0 512 512" height="512" viewBox="0 0 512 512" width="512" xmlns="http://www.w3.org/2000/svg"><g><g><g><g><g><g><g><circle cx="256" cy="256" fill="#2fddd0" r="256"/></g></g></g></g></g></g><path d="m512 256c0-24.821-3.532-48.816-10.122-71.511l-105.226-105.226-281.304 353.474 69.141 69.141c22.695 6.59 46.69 10.122 71.511 10.122 141.385 0 256-114.615 256-256z" fill="#11bfae"/><g><path d="m115.348 79.263h281.304v353.475h-281.304z" fill="#fff"/></g><g><path d="m256 79.263h140.652v353.475h-140.652z" fill="#e9edf5"/></g><g><path d="m256 104.561 17.408 29.019 33.592 7.228-22.833 25.163 3.353 33.486-31.52-13.467-31.52 13.467 3.353-33.486-22.833-25.163 33.592-7.228z" fill="#ffce00"/></g><g><path d="m307 140.808-33.592-7.228-17.408-29.019v81.429l31.52 13.467-3.353-33.486z" fill="#fdba12"/></g><g><path d="m140.181 232.411h231.638v29.589h-231.638z" fill="#cdd2e1"/></g><g><path d="m140.181 294.954h231.638v29.589h-231.638z" fill="#cdd2e1"/></g><g><path d="m140.181 357.497h231.638v29.589h-231.638z" fill="#cdd2e1"/></g><g><path d="m256 232.411h115.819v29.589h-115.819z" fill="#afb4c8"/></g><g><path d="m256 294.954h115.819v29.589h-115.819z" fill="#afb4c8"/></g><g><path d="m256 357.497h115.819v29.589h-115.819z" fill="#afb4c8"/></g></g></svg>